<svg xmlns="http://www.w3.org/2000/svg" viewBox="0 0 192 192" width="192" height="192">
  <title>w8</title>
  <rect x="1" y="1" width="190" height="190" rx="18" ry="18" fill="#795548"/>
  <path d="M0 76 H91 C92 54 101 31 124 25" fill="none" stroke="#ffffff" stroke-width="5" stroke-linecap="round"/>
  <path d="M94 160 C94 115 94 82 94 76 C94 54 101 31 124 25" fill="none" stroke="#ffffff" stroke-width="5" stroke-linecap="round"/>
  <path d="M94 76 H166" fill="none" stroke="#ffffff" stroke-width="5" stroke-linecap="round"/>
  <path d="M134.50 127.08Q126.17 127.08 120.09 124.68Q114.02 122.28 110.78 117.77Q107.55 113.26 107.55 107.09Q107.55 102.09 109.56 98.27Q111.57 94.44 115.10 91.99Q116.66 91.01 118.43 90.33Q115.39 88.76 113.23 86.02Q109.41 81.31 109.41 74.75Q109.41 68.77 112.45 64.55Q115.49 60.34 121.17 58.09Q126.86 55.83 134.50 55.83Q142.24 55.83 147.88 58.09Q153.51 60.34 156.55 64.55Q159.59 68.77 159.59 74.75Q159.59 79.16 157.87 82.83Q156.16 86.51 153.22 88.86Q152.04 89.74 150.77 90.43Q154.49 91.90 157.24 94.93Q161.45 99.83 161.45 107.09Q161.45 113.26 158.22 117.77Q154.98 122.28 148.95 124.68Q142.93 127.08 134.50 127.08M134.50 113.55Q139.69 113.55 142.44 111.55Q145.18 109.54 145.18 105.71Q145.18 101.79 142.44 99.83Q139.69 97.87 134.50 97.87Q129.31 97.87 126.56 99.83Q123.82 101.79 123.82 105.71Q123.82 109.54 126.56 111.55Q129.31 113.55 134.50 113.55M134.50 84.25Q137.34 84.25 139.30 83.37Q141.26 82.49 142.29 80.77Q143.32 79.06 143.32 76.80Q143.32 73.37 140.97 71.36Q138.62 69.36 134.50 69.36Q130.38 69.36 128.08 71.36Q125.78 73.37 125.78 76.80Q125.78 80.23 128.08 82.24Q130.38 84.25 134.50 84.25" fill="#233039" opacity="0.70" transform="translate(134.5 87) scale(0.92 1.18) translate(-134.5 -87)"/>
  <path d="M126.50 122.08Q118.17 122.08 112.09 119.68Q106.02 117.28 102.78 112.77Q99.55 108.26 99.55 102.09Q99.55 97.09 101.56 93.27Q103.57 89.44 107.10 86.99Q108.66 86.01 110.43 85.33Q107.39 83.76 105.23 81.02Q101.41 76.31 101.41 69.75Q101.41 63.77 104.45 59.55Q107.49 55.34 113.17 53.09Q118.86 50.83 126.50 50.83Q134.24 50.83 139.88 53.09Q145.51 55.34 148.55 59.55Q151.59 63.77 151.59 69.75Q151.59 74.16 149.87 77.83Q148.16 81.51 145.22 83.86Q144.04 84.74 142.77 85.43Q146.49 86.90 149.24 89.93Q153.45 94.83 153.45 102.09Q153.45 108.26 150.22 112.77Q146.98 117.28 140.95 119.68Q134.93 122.08 126.50 122.08M126.50 108.55Q131.69 108.55 134.44 106.55Q137.18 104.54 137.18 100.71Q137.18 96.79 134.44 94.83Q131.69 92.87 126.50 92.87Q121.31 92.87 118.56 94.83Q115.82 96.79 115.82 100.71Q115.82 104.54 118.56 106.55Q121.31 108.55 126.50 108.55M126.50 79.25Q129.34 79.25 131.30 78.37Q133.26 77.49 134.29 75.77Q135.32 74.06 135.32 71.80Q135.32 68.37 132.97 66.36Q130.62 64.36 126.50 64.36Q122.38 64.36 120.08 66.36Q117.78 68.37 117.78 71.80Q117.78 75.23 120.08 77.24Q122.38 79.25 126.50 79.25" fill="#ffffff" transform="translate(126.5 84) scale(0.92 1.18) translate(-126.5 -84)"/>
  <path d="M50.23 151.68Q47.65 151.68 45.75 150.43Q43.85 149.18 42.71 146.52L32.37 121.51Q31.38 119.16 31.69 117.22Q31.99 115.28 33.55 114.10Q35.11 112.92 37.84 112.92Q40.20 112.92 41.72 114.03Q43.24 115.13 44.46 118.32L50.92 135.34L57.83 116.88Q58.59 114.82 59.92 113.87Q61.25 112.92 63.30 112.92Q65.51 112.92 66.80 113.91Q68.09 114.90 68.85 116.88L75.84 135.65L82.53 117.86Q83.60 114.98 85.27 113.95Q86.94 112.92 88.84 112.92Q91.42 112.92 92.79 114.14Q94.16 115.36 94.35 117.33Q94.54 119.31 93.55 121.59L83.29 146.44Q82.23 149.10 80.33 150.39Q78.43 151.68 75.84 151.68Q73.18 151.68 71.32 150.39Q69.46 149.10 68.32 146.44L62.77 132.61L57.60 146.29Q56.54 149.02 54.72 150.35Q52.89 151.68 50.23 151.68" fill="#233039" opacity="0.70"/>
  <path d="M43.23 146.68Q40.65 146.68 38.75 145.43Q36.85 144.18 35.71 141.52L25.37 116.51Q24.38 114.16 24.69 112.22Q24.99 110.28 26.55 109.10Q28.11 107.92 30.84 107.92Q33.20 107.92 34.72 109.03Q36.24 110.13 37.46 113.32L43.92 130.34L50.83 111.88Q51.59 109.82 52.92 108.87Q54.25 107.92 56.30 107.92Q58.51 107.92 59.80 108.91Q61.09 109.90 61.85 111.88L68.84 130.65L75.53 112.86Q76.60 109.98 78.27 108.95Q79.94 107.92 81.84 107.92Q84.42 107.92 85.79 109.14Q87.16 110.36 87.35 112.33Q87.54 114.31 86.55 116.59L76.29 141.44Q75.23 144.10 73.33 145.39Q71.43 146.68 68.84 146.68Q66.18 146.68 64.32 145.39Q62.46 144.10 61.32 141.44L55.77 127.61L50.60 141.29Q49.54 144.02 47.72 145.35Q45.89 146.68 43.23 146.68" fill="#ffffff"/>
</svg>
